<svg width="20" height="20" viewBox="0 0 20 20" fill="none" xmlns="http://www.w3.org/2000/svg">
<path d="M9.16675 1.66699H7.50008C3.33341 1.66699 1.66675 3.33366 1.66675 7.50033V12.5003C1.66675 16.667 3.33341 18.3337 7.50008 18.3337H12.5001C16.6667 18.3337 18.3334 16.667 18.3334 12.5003V10.8337" stroke="#3FC045" stroke-width="1.25" stroke-linecap="round" stroke-linejoin="round"/>
<path d="M13.3668 2.51639L6.80014 9.08306C6.55014 9.33306 6.30014 9.82472 6.25014 10.1831L5.89181 12.6914C5.75848 13.5997 6.40014 14.2331 7.30848 14.1081L9.81681 13.7497C10.1668 13.6997 10.6585 13.4497 10.9168 13.1997L17.4835 6.63306C18.6168 5.49972 19.1501 4.18306 17.4835 2.51639C15.8168 0.849722 14.5001 1.38306 13.3668 2.51639Z" stroke="#3FC045" stroke-width="1.25" stroke-miterlimit="10" stroke-linecap="round" stroke-linejoin="round"/>
<path d="M12.425 3.45801C12.9834 5.44967 14.5417 7.00801 16.5417 7.57467" stroke="#3FC045" stroke-width="1.25" stroke-miterlimit="10" stroke-linecap="round" stroke-linejoin="round"/>
</svg>
