<?xml version="1.0" encoding="UTF-8"?>
<svg xmlns="http://www.w3.org/2000/svg" version="1.1" width="1024" height="1024" viewBox="0 0 500 500"><rect x="0" y="0" width="500" height="500" fill="#ffffff"/><g transform="scale(18.519)"><g transform="translate(1,1)"><g><g transform="translate(3.5,3.5)"><path fill-rule="evenodd" d="M-3.5 -3.5L3.5 -3.5L3.5 3.5L-3.5 3.5ZM-2.5 -2.5L-2.5 2.5L2.5 2.5L2.5 -2.5Z" fill="#000000"/><path fill-rule="evenodd" d="M-1.5 -1.5L1.5 -1.5L1.5 1.5L-1.5 1.5Z" fill="#000000"/></g></g><g><g transform="translate(21.5,3.5)"><g transform="rotate(90)"><path fill-rule="evenodd" d="M-3.5 -3.5L3.5 -3.5L3.5 3.5L-3.5 3.5ZM-2.5 -2.5L-2.5 2.5L2.5 2.5L2.5 -2.5Z" fill="#000000"/><path fill-rule="evenodd" d="M-1.5 -1.5L1.5 -1.5L1.5 1.5L-1.5 1.5Z" fill="#000000"/></g></g></g><g><g transform="translate(3.5,21.5)"><g transform="rotate(-90)"><path fill-rule="evenodd" d="M-3.5 -3.5L3.5 -3.5L3.5 3.5L-3.5 3.5ZM-2.5 -2.5L-2.5 2.5L2.5 2.5L2.5 -2.5Z" fill="#000000"/><path fill-rule="evenodd" d="M-1.5 -1.5L1.5 -1.5L1.5 1.5L-1.5 1.5Z" fill="#000000"/></g></g></g><path fill-rule="evenodd" d="M9 0L9 2L8 2L8 8L10 8L10 9L9 9L9 11L8 11L8 13L7 13L7 12L5 12L5 13L4 13L4 12L2 12L2 13L3 13L3 14L4 14L4 15L5 15L5 16L6 16L6 17L7 17L7 16L8 16L8 18L9 18L9 12L10 12L10 13L12 13L12 17L10 17L10 18L12 18L12 19L11 19L11 20L12 20L12 22L13 22L13 23L11 23L11 24L12 24L12 25L13 25L13 23L14 23L14 24L15 24L15 21L16 21L16 22L17 22L17 24L22 24L22 25L25 25L25 24L24 24L24 23L25 23L25 21L23 21L23 22L22 22L22 23L21 23L21 21L22 21L22 19L25 19L25 15L23 15L23 14L22 14L22 15L23 15L23 16L24 16L24 18L22 18L22 19L21 19L21 17L22 17L22 16L15 16L15 13L16 13L16 14L17 14L17 15L19 15L19 14L20 14L20 15L21 15L21 13L22 13L22 12L18 12L18 11L19 11L19 10L20 10L20 11L21 11L21 9L23 9L23 8L18 8L18 9L17 9L17 10L16 10L16 8L17 8L17 6L16 6L16 4L17 4L17 2L16 2L16 1L17 1L17 0L16 0L16 1L15 1L15 0L14 0L14 1L13 1L13 0L12 0L12 2L16 2L16 3L14 3L14 5L13 5L13 3L9 3L9 2L11 2L11 1L10 1L10 0ZM9 4L9 7L10 7L10 8L12 8L12 9L13 9L13 11L12 11L12 10L11 10L11 11L12 11L12 12L13 12L13 14L14 14L14 13L15 13L15 12L16 12L16 13L17 13L17 14L19 14L19 13L17 13L17 12L16 12L16 11L15 11L15 12L13 12L13 11L14 11L14 9L13 9L13 7L14 7L14 8L16 8L16 6L15 6L15 5L14 5L14 6L13 6L13 5L12 5L12 4L11 4L11 7L10 7L10 4ZM12 6L12 7L13 7L13 6ZM14 6L14 7L15 7L15 6ZM0 8L0 9L1 9L1 10L0 10L0 17L1 17L1 10L2 10L2 11L5 11L5 10L3 10L3 9L7 9L7 10L6 10L6 11L7 11L7 10L8 10L8 9L7 9L7 8L2 8L2 9L1 9L1 8ZM18 9L18 10L19 10L19 9ZM24 9L24 10L25 10L25 9ZM22 10L22 11L23 11L23 10ZM23 12L23 13L24 13L24 14L25 14L25 12ZM5 13L5 15L6 15L6 16L7 16L7 15L8 15L8 14L7 14L7 13ZM6 14L6 15L7 15L7 14ZM10 14L10 16L11 16L11 14ZM2 15L2 17L3 17L3 15ZM13 15L13 16L14 16L14 15ZM12 17L12 18L13 18L13 19L12 19L12 20L14 20L14 21L13 21L13 22L14 22L14 21L15 21L15 20L16 20L16 17ZM17 17L17 20L20 20L20 17ZM14 18L14 19L15 19L15 18ZM18 18L18 19L19 19L19 18ZM8 19L8 23L9 23L9 24L8 24L8 25L10 25L10 22L11 22L11 21L10 21L10 22L9 22L9 20L10 20L10 19ZM17 21L17 22L19 22L19 23L20 23L20 21ZM23 22L23 23L22 23L22 24L23 24L23 23L24 23L24 22Z" fill="#000000"/></g></g></svg>
