<svg width="173" height="162" viewBox="0 0 173 162" fill="none" xmlns="http://www.w3.org/2000/svg">
<circle cx="85.5" cy="93" r="67" fill="#829F35"/>
<circle cx="166" cy="32.5" r="6.5" fill="#829F35"/>
<ellipse cx="11" cy="10" rx="10.5" ry="10" fill="#829F35"/>
<ellipse cx="5.5" cy="136.5" rx="5" ry="5.5" fill="#829F35"/>
<ellipse cx="154" cy="160" rx="2.5" ry="2" fill="#829F35"/>
<path d="M82.1976 111C80.5838 111 78.9701 110.393 78.048 109.179L65.138 94.6121C63.2937 92.5889 63.7548 89.7565 66.0602 88.1379C68.3655 86.5193 71.593 86.924 73.4373 88.9472L82.1976 98.8609L101.563 76.808C103.407 74.7848 106.635 74.3801 108.94 75.9987C111.245 77.6173 111.706 80.4498 109.862 82.4729L86.3473 109.179C85.1946 110.191 83.8114 111 82.1976 111Z" fill="white"/>
<circle cx="114" cy="103.5" r="2.5" fill="white"/>
<circle cx="48.5" cy="76" r="4" fill="white"/>
<circle cx="107" cy="54.5" r="1.5" fill="white"/>
<circle cx="65.5" cy="125" r="2" fill="white"/>
<circle cx="87.5" cy="77" r="1" fill="white"/>
</svg>
